<svg width="28" height="29" viewBox="0 0 28 29" fill="none" xmlns="http://www.w3.org/2000/svg">
<rect width="28" height="29" fill="#1E1E1E"/>
<g clip-path="url(#clip0_1_2)" filter="url(#filter0_b_1_2)">
<rect width="1474.75" height="1073.29" transform="translate(-46 -409)" fill="url(#paint0_linear_1_2)"/>
<g clip-path="url(#clip1_1_2)">
<mask id="mask0_1_2" style="mask-type:luminance" maskUnits="userSpaceOnUse" x="0" y="0" width="28" height="29">
<path d="M28 0.825073H0V28.8251H28V0.825073Z" fill="white"/>
<path d="M10.8468 16.9562C12.5432 15.951 13.4703 14.9167 13.5011 13.1776C13.5011 11.8168 12.3941 10.7098 11.0334 10.7098C9.67263 10.7098 8.56559 11.8168 8.56559 13.1776V13.9978H10.2062V13.1776C10.2062 12.7215 10.5773 12.3504 11.0334 12.3504C11.4895 12.3504 11.8605 12.7215 11.8605 13.1776C11.858 14.537 10.8158 15.038 9.96958 15.5698C9.08868 16.1234 8.56543 17.0795 8.56543 18.1199V18.9402H13.501V17.2996H10.476C10.5755 17.1656 10.6977 17.0445 10.8468 16.9562Z" fill="white"/>
<path d="M20.1523 14.4423H19.3252V12.0769H17.6846V14.4423H16.2273L16.996 10.8987L15.3927 10.5509L14.1926 16.0829H17.6846V18.9383H19.3252V16.0829H20.1523V14.4423Z" fill="white"/>
<path d="M28 14.8251C28 22.5567 21.7317 28.825 14 28.825C10.1341 28.825 6.63416 27.2582 4.10049 24.7246L2.87659 25.9485L2.31769 25.7385L1.96167 20.4611L2.31112 20.1117L7.58845 20.4671C7.68743 20.7313 7.69947 20.763 7.79845 21.0266L6.57564 22.2494C8.47548 24.1498 11.1005 25.325 14 25.325C19.799 25.325 24.5 20.6241 24.5 14.8251H28Z" fill="white"/>
<path d="M26.0377 9.19009L25.6883 9.53954L20.411 9.18353C20.312 8.91993 20.2999 8.88822 20.201 8.62408L21.4243 7.40072V7.40017C19.5244 5.50033 16.8994 4.3251 14 4.3251C8.20091 4.3251 3.49999 9.02603 3.49999 14.8251H0C0 7.09338 6.26826 0.825114 14 0.825114C17.8658 0.825114 21.3658 2.39191 23.8994 4.92557L25.1223 3.70276C25.3864 3.80175 25.4181 3.81323 25.6817 3.91276L26.0377 9.19009Z" fill="white"/>
</mask>
<g mask="url(#mask0_1_2)">
<mask id="mask1_1_2" style="mask-type:luminance" maskUnits="userSpaceOnUse" x="0" y="0" width="28" height="29">
<path d="M0 0.825155H27.9999V28.8251H0V0.825155Z" fill="white"/>
</mask>
<g mask="url(#mask1_1_2)">
<path d="M10.8468 16.9563C12.5432 15.9511 13.4703 14.9167 13.5011 13.1776C13.5011 11.8169 12.3941 10.7099 11.0334 10.7099C9.67263 10.7099 8.56559 11.8169 8.56559 13.1776V13.9979H10.2062V13.1776C10.2062 12.7215 10.5773 12.3505 11.0334 12.3505C11.4895 12.3505 11.8605 12.7215 11.8605 13.1776C11.858 14.537 10.8158 15.0381 9.96958 15.5698C9.08868 16.1234 8.56543 17.0795 8.56543 18.12V18.9403H13.501V17.2997H10.476C10.5755 17.1656 10.6977 17.0446 10.8468 16.9563Z" fill="white" fill-opacity="0.62"/>
<path d="M20.1523 14.4423H19.3252V12.077H17.6846V14.4423H16.2273L16.996 10.8988L15.3927 10.551L14.1926 16.083H17.6846V18.9384H19.3252V16.083H20.1523V14.4423Z" fill="white" fill-opacity="0.62"/>
<path d="M28 14.8251C28 22.5568 21.7317 28.8251 14 28.8251C10.1341 28.8251 6.63416 27.2583 4.10049 24.7246L2.87659 25.9485L2.31769 25.7385L1.96167 20.4612L2.31112 20.1117L7.58845 20.4672C7.68743 20.7313 7.69947 20.7631 7.79845 21.0267L6.57564 22.2495C8.47548 24.1499 11.1005 25.3251 14 25.3251C19.799 25.3251 24.5 20.6242 24.5 14.8251H28Z" fill="white" fill-opacity="0.62"/>
<path d="M26.0377 9.19015L25.6883 9.5396L20.411 9.18359C20.312 8.92 20.2999 8.88828 20.201 8.62414L21.4243 7.40078V7.40023C19.5244 5.5004 16.8994 4.32516 14 4.32516C8.20091 4.32516 3.49999 9.02609 3.49999 14.8251H0C0 7.09344 6.26826 0.825175 14 0.825175C17.8658 0.825175 21.3658 2.39197 23.8994 4.92563L25.1223 3.70282C25.3864 3.80181 25.4181 3.81329 25.6817 3.91282L26.0377 9.19015Z" fill="white" fill-opacity="0.62"/>
</g>
</g>
</g>
</g>
<defs>
<filter id="filter0_b_1_2" x="-168.896" y="-531.896" width="1720.54" height="1319.08" filterUnits="userSpaceOnUse" color-interpolation-filters="sRGB">
<feFlood flood-opacity="0" result="BackgroundImageFix"/>
<feGaussianBlur in="BackgroundImageFix" stdDeviation="61.448"/>
<feComposite in2="SourceAlpha" operator="in" result="effect1_backgroundBlur_1_2"/>
<feBlend mode="normal" in="SourceGraphic" in2="effect1_backgroundBlur_1_2" result="shape"/>
</filter>
<linearGradient id="paint0_linear_1_2" x1="737.376" y1="0" x2="737.376" y2="1073.29" gradientUnits="userSpaceOnUse">
<stop stop-color="#0066FF"/>
<stop offset="1" stop-color="#4E94FF"/>
</linearGradient>
<clipPath id="clip0_1_2">
<rect width="1474.75" height="1073.29" fill="white" transform="translate(-46 -409)"/>
</clipPath>
<clipPath id="clip1_1_2">
<rect width="28" height="28" fill="white" transform="translate(0 0.825073)"/>
</clipPath>
</defs>
</svg>
