<svg width="28" height="29" viewBox="0 0 28 29" fill="none" xmlns="http://www.w3.org/2000/svg">
<rect width="28" height="29" fill="#1E1E1E"/>
<g clip-path="url(#clip0_1_2)" filter="url(#filter0_b_1_2)">
<rect width="1474.75" height="1073.29" transform="translate(-46 -510)" fill="url(#paint0_linear_1_2)"/>
<path d="M21.4435 16.1936C20.8069 16.185 20.175 16.303 19.5844 16.5407C18.9937 16.7783 18.4562 17.131 18.003 17.5781C17.5498 18.0252 17.19 18.5579 16.9444 19.1453C16.6987 19.7326 16.5723 20.3629 16.5723 20.9996C16.5723 21.6362 16.6987 22.2665 16.9444 22.8538C17.19 23.4412 17.5498 23.9739 18.003 24.421C18.4562 24.8681 18.9937 25.2208 19.5844 25.4584C20.175 25.6961 20.8069 25.8141 21.4435 25.8055C22.7069 25.7884 23.9127 25.2746 24.8001 24.3752C25.6875 23.4757 26.185 22.263 26.185 20.9996C26.185 19.7361 25.6875 18.5234 24.8001 17.6239C23.9127 16.7245 22.7069 16.2107 21.4435 16.1936ZM23.5715 20.7952L21.2247 22.6852C21.1435 22.7505 21.0502 22.799 20.95 22.828C20.8499 22.8569 20.7451 22.8657 20.6416 22.8538C20.538 22.8419 20.4379 22.8096 20.3469 22.7588C20.256 22.7079 20.1761 22.6395 20.1117 22.5575L19.1895 21.3815C19.0706 21.2164 19.0201 21.0118 19.0486 20.8104C19.0771 20.609 19.1823 20.4263 19.3423 20.3007C19.5023 20.1751 19.7046 20.1161 19.9071 20.1362C20.1095 20.1563 20.2963 20.2539 20.4285 20.4085L20.8581 20.9571L22.5836 19.5667C22.6643 19.5019 22.7569 19.4535 22.8563 19.4245C22.9556 19.3954 23.0597 19.3862 23.1626 19.3974C23.2655 19.4086 23.3652 19.4399 23.456 19.4896C23.5468 19.5393 23.6269 19.6064 23.6918 19.6871C23.7567 19.7677 23.805 19.8604 23.8341 19.9597C23.8631 20.0591 23.8723 20.1632 23.8612 20.2661C23.85 20.369 23.8187 20.4687 23.769 20.5595C23.7193 20.6503 23.6522 20.7304 23.5715 20.7952Z" fill="white" fill-opacity="0.62"/>
<path d="M15.3247 21.0008C15.3263 19.3785 15.9715 17.8231 17.1186 16.6759C18.2658 15.5288 19.8212 14.8836 21.4435 14.882C22.5644 14.882 23.6127 15.19 24.5174 15.7185V7.84259C24.5174 6.8888 24.1385 5.97408 23.4641 5.29965C22.7897 4.62522 21.8749 4.24634 20.9212 4.24634H19.0312V3.84384C19.0312 3.40634 18.6724 3.05634 18.2437 3.05634C17.8062 3.05634 17.4562 3.40634 17.4562 3.84384V4.24634H8.0324V3.84384C8.0324 3.40634 7.6824 3.05634 7.2449 3.05634C6.8074 3.05634 6.4574 3.40634 6.4574 3.84384V4.24634H4.55865C3.60487 4.24634 2.69015 4.62522 2.01572 5.29965C1.34129 5.97408 0.962402 6.8888 0.962402 7.84259V20.7401C0.962402 21.6939 1.34129 22.6086 2.01572 23.283C2.69015 23.9574 3.60487 24.3363 4.55865 24.3363H16.3204C15.6706 23.3453 15.3245 22.1859 15.3247 21.0008ZM18.402 11.5386C18.5214 11.5386 18.6396 11.5621 18.7499 11.6078C18.8602 11.6535 18.9605 11.7204 19.0449 11.8049C19.1293 11.8893 19.1963 11.9895 19.2419 12.0998C19.2876 12.2101 19.3112 12.3283 19.3112 12.4477C19.3112 12.5671 19.2876 12.6853 19.2419 12.7956C19.1963 12.9059 19.1293 13.0061 19.0449 13.0906C18.9605 13.175 18.8602 13.2419 18.7499 13.2876C18.6396 13.3333 18.5214 13.3568 18.402 13.3568C18.1609 13.3568 17.9297 13.2611 17.7592 13.0906C17.5887 12.9201 17.4929 12.6888 17.4929 12.4477C17.4929 12.2066 17.5887 11.9754 17.7592 11.8049C17.9297 11.6344 18.1609 11.5386 18.402 11.5386ZM7.08215 18.3102C6.84104 18.3102 6.6098 18.2144 6.4393 18.0439C6.26881 17.8734 6.17303 17.6422 6.17303 17.4011C6.17303 17.16 6.26881 16.9287 6.4393 16.7582C6.6098 16.5877 6.84104 16.492 7.08215 16.492C7.32327 16.492 7.55451 16.5877 7.725 16.7582C7.89549 16.9287 7.99128 17.16 7.99128 17.4011C7.99128 17.6422 7.89549 17.8734 7.725 18.0439C7.55451 18.2144 7.32327 18.3102 7.08215 18.3102ZM7.08215 13.3568C6.96276 13.3568 6.84455 13.3333 6.73425 13.2876C6.62395 13.2419 6.52372 13.175 6.4393 13.0906C6.35488 13.0061 6.28792 12.9059 6.24223 12.7956C6.19654 12.6853 6.17303 12.5671 6.17303 12.4477C6.17303 12.3283 6.19654 12.2101 6.24223 12.0998C6.28792 11.9895 6.35488 11.8893 6.4393 11.8049C6.52372 11.7204 6.62395 11.6535 6.73425 11.6078C6.84455 11.5621 6.96276 11.5386 7.08215 11.5386C7.32327 11.5386 7.55451 11.6344 7.725 11.8049C7.89549 11.9754 7.99128 12.2066 7.99128 12.4477C7.99128 12.6888 7.89549 12.9201 7.725 13.0906C7.55451 13.2611 7.32327 13.3568 7.08215 13.3568ZM12.7425 18.3102C12.5014 18.3102 12.2702 18.2144 12.0997 18.0439C11.9292 17.8734 11.8334 17.6422 11.8334 17.4011C11.8334 17.16 11.9292 16.9287 12.0997 16.7582C12.2702 16.5877 12.5014 16.492 12.7425 16.492C12.9836 16.492 13.2149 16.5877 13.3854 16.7582C13.5559 16.9287 13.6517 17.16 13.6517 17.4011C13.6517 17.6422 13.5559 17.8734 13.3854 18.0439C13.2149 18.2144 12.9836 18.3102 12.7425 18.3102ZM12.7425 13.3568C12.6231 13.3568 12.5049 13.3333 12.3946 13.2876C12.2843 13.2419 12.1841 13.175 12.0997 13.0906C12.0153 13.0061 11.9483 12.9059 11.9026 12.7956C11.8569 12.6853 11.8334 12.5671 11.8334 12.4477C11.8334 12.3283 11.8569 12.2101 11.9026 12.0998C11.9483 11.9895 12.0153 11.8893 12.0997 11.8049C12.1841 11.7204 12.2843 11.6535 12.3946 11.6078C12.5049 11.5621 12.6231 11.5386 12.7425 11.5386C12.9836 11.5386 13.2149 11.6344 13.3854 11.8049C13.5559 11.9754 13.6517 12.2066 13.6517 12.4477C13.6517 12.6888 13.5559 12.9201 13.3854 13.0906C13.2149 13.2611 12.9836 13.3568 12.7425 13.3568Z" fill="white" fill-opacity="0.62"/>
</g>
<defs>
<filter id="filter0_b_1_2" x="-168.896" y="-632.896" width="1720.54" height="1319.08" filterUnits="userSpaceOnUse" color-interpolation-filters="sRGB">
<feFlood flood-opacity="0" result="BackgroundImageFix"/>
<feGaussianBlur in="BackgroundImageFix" stdDeviation="61.448"/>
<feComposite in2="SourceAlpha" operator="in" result="effect1_backgroundBlur_1_2"/>
<feBlend mode="normal" in="SourceGraphic" in2="effect1_backgroundBlur_1_2" result="shape"/>
</filter>
<linearGradient id="paint0_linear_1_2" x1="737.376" y1="0" x2="737.376" y2="1073.29" gradientUnits="userSpaceOnUse">
<stop stop-color="#0066FF"/>
<stop offset="1" stop-color="#4E94FF"/>
</linearGradient>
<clipPath id="clip0_1_2">
<rect width="1474.75" height="1073.29" fill="white" transform="translate(-46 -510)"/>
</clipPath>
</defs>
</svg>
