<svg width="28" height="29" viewBox="0 0 28 29" fill="none" xmlns="http://www.w3.org/2000/svg">
<rect width="28" height="29" fill="#1E1E1E"/>
<g clip-path="url(#clip0_1_2)" filter="url(#filter0_b_1_2)">
<rect width="1474.75" height="1073.29" transform="translate(-46 -596)" fill="url(#paint0_linear_1_2)"/>
<g clip-path="url(#clip1_1_2)">
<path d="M19.6596 16.253C19.3854 16.2304 19.1135 16.3175 18.9034 16.4952C18.6934 16.6728 18.5623 16.9266 18.5391 17.2007C18.4472 18.2846 18.3335 19.2274 18.2339 19.7229V19.7289C17.9403 21.2437 16.5053 22.7411 15.0336 23.0703C14.9062 23.0965 14.7782 23.1217 14.6508 23.1458C14.7602 21.7387 14.8417 19.9394 14.8307 18.552C14.8471 16.4323 14.6442 13.1686 14.4643 11.8698C14.1411 9.47827 12.6706 6.82593 11.0436 5.69882L11.0338 5.69225C9.90258 4.92805 8.69024 4.29144 7.41894 3.79405C7.19216 3.70619 6.96813 3.62416 6.74683 3.54796C7.95367 3.36137 9.17331 3.26994 10.3945 3.27452C12.057 3.27452 13.5746 3.426 15.0336 3.72897C16.5053 4.0571 17.9403 5.55554 18.2339 7.07038V7.07639C18.3329 7.56858 18.4467 8.51139 18.5385 9.59202C18.5619 9.86665 18.6934 10.1208 18.9041 10.2984C19.1148 10.4761 19.3875 10.5628 19.6621 10.5395C19.9367 10.5161 20.1908 10.3846 20.3685 10.1739C20.5462 9.96322 20.6329 9.69056 20.6096 9.41593C20.51 8.24616 20.3875 7.24593 20.2727 6.67061C19.8193 4.34038 17.7571 2.20264 15.4755 1.69733L15.4624 1.6946C13.8589 1.3621 12.2019 1.19913 10.3907 1.19585C8.5794 1.19257 6.92894 1.35991 5.3255 1.69514L5.31183 1.69788C4.29354 1.92374 3.31956 2.47499 2.51237 3.22257C2.29422 3.38706 2.10354 3.58512 1.94745 3.80936C1.23433 4.64171 0.716435 5.63757 0.515185 6.67061C0.263076 7.93444 -0.0218458 11.2119 2.92193e-05 13.3994C-0.012002 14.573 0.0640136 16.0605 0.17667 17.3823C0.236826 18.2299 0.305185 18.9682 0.37081 19.4418C0.694014 21.8333 2.16456 24.4856 3.79206 25.6127L3.80136 25.6193C4.93283 26.3834 6.14533 27.02 7.41675 27.5175C8.70409 28.0173 9.88534 28.3203 11.0289 28.4439H11.0387C12.5754 28.5812 13.9721 27.2473 14.3949 25.2972C14.7525 25.2403 15.1071 25.1756 15.4585 25.103L15.4717 25.1003C17.7538 24.595 19.8155 22.4573 20.2689 20.127C20.3837 19.5506 20.5067 18.5482 20.6063 17.3757C20.6295 17.1013 20.5428 16.829 20.3653 16.6184C20.1878 16.4079 19.934 16.2765 19.6596 16.253Z" fill="white"/>
<path d="M28.005 13.3977C28.005 13.3633 28.005 13.3288 27.9996 13.2944C27.9998 13.2922 27.9998 13.29 27.9996 13.2878C27.9963 13.2555 27.9914 13.2234 27.9848 13.1916V13.1844C27.9438 12.987 27.8459 12.8058 27.7032 12.6633L23.9844 8.94125C23.7895 8.74631 23.5252 8.63677 23.2496 8.63672C22.974 8.63667 22.7096 8.74611 22.5147 8.94097C22.3197 9.13583 22.2102 9.40015 22.2101 9.67578C22.2101 9.95141 22.3195 10.2158 22.5144 10.4107L24.4651 12.3609H17.2917C17.0162 12.3609 16.7519 12.4703 16.557 12.6652C16.3622 12.8601 16.2527 13.1243 16.2527 13.3999C16.2527 13.6755 16.3622 13.9398 16.557 14.1346C16.7519 14.3295 17.0162 14.439 17.2917 14.439H24.4558L22.5067 16.388C22.3126 16.583 22.2036 16.8471 22.2039 17.1223C22.2042 17.3975 22.3137 17.6614 22.5083 17.856C22.7029 18.0506 22.9667 18.16 23.2419 18.1603C23.5171 18.1606 23.7812 18.0517 23.9762 17.8575L27.678 14.1557C27.8123 14.03 27.9104 13.8706 27.9624 13.6941C27.9718 13.6627 27.9794 13.6307 27.9853 13.5984C27.9856 13.5939 27.9856 13.5893 27.9853 13.5848C27.9903 13.5569 27.9952 13.5301 27.9979 13.5005C28.0007 13.471 27.9979 13.4579 27.9979 13.4371V13.401L28.005 13.3977Z" fill="white"/>
</g>
</g>
<defs>
<filter id="filter0_b_1_2" x="-168.896" y="-718.896" width="1720.54" height="1319.08" filterUnits="userSpaceOnUse" color-interpolation-filters="sRGB">
<feFlood flood-opacity="0" result="BackgroundImageFix"/>
<feGaussianBlur in="BackgroundImageFix" stdDeviation="61.448"/>
<feComposite in2="SourceAlpha" operator="in" result="effect1_backgroundBlur_1_2"/>
<feBlend mode="normal" in="SourceGraphic" in2="effect1_backgroundBlur_1_2" result="shape"/>
</filter>
<linearGradient id="paint0_linear_1_2" x1="737.376" y1="0" x2="737.376" y2="1073.29" gradientUnits="userSpaceOnUse">
<stop stop-color="#0066FF"/>
<stop offset="1" stop-color="#4E94FF"/>
</linearGradient>
<clipPath id="clip0_1_2">
<rect width="1474.75" height="1073.29" fill="white" transform="translate(-46 -596)"/>
</clipPath>
<clipPath id="clip1_1_2">
<rect width="28" height="28" fill="white" transform="translate(0 0.825073)"/>
</clipPath>
</defs>
</svg>
