<svg width="28" height="29" viewBox="0 0 28 29" fill="none" xmlns="http://www.w3.org/2000/svg">
<rect width="28" height="29" fill="#1E1E1E"/>
<g clip-path="url(#clip0_1_2)" filter="url(#filter0_b_1_2)">
<rect width="1474.75" height="1073.29" transform="translate(-46 -223)" fill="url(#paint0_linear_1_2)"/>
<g clip-path="url(#clip1_1_2)">
<path d="M16.9167 28.8251C16.7246 28.8251 16.5356 28.7777 16.3663 28.6872C16.1969 28.5966 16.0526 28.4656 15.946 28.3059L13.9592 25.3251H11.6667C11.3572 25.3251 11.0605 25.2021 10.8417 24.9833C10.6229 24.7646 10.5 24.4678 10.5 24.1584C10.5 23.849 10.6229 23.5522 10.8417 23.3334C11.0605 23.1146 11.3572 22.9917 11.6667 22.9917H14.5833C14.973 22.9917 15.337 23.1866 15.554 23.5109L16.772 25.3379L19.3725 20.1357C19.4662 19.949 19.6082 19.7908 19.7839 19.6776C19.9595 19.5645 20.1623 19.5005 20.3711 19.4924C20.5798 19.4843 20.787 19.5323 20.9708 19.6315C21.1547 19.7307 21.3086 19.8775 21.4165 20.0564L24.577 25.3251H26.8333C27.1428 25.3251 27.4395 25.448 27.6583 25.6668C27.8771 25.8856 28 26.1823 28 26.4917C28 26.8011 27.8771 27.0979 27.6583 27.3167C27.4395 27.5355 27.1428 27.6584 26.8333 27.6584H23.9167C23.7153 27.6585 23.5174 27.6064 23.3422 27.5072C23.167 27.4081 23.0204 27.2652 22.9168 27.0926L20.51 23.0816L17.9608 28.1811C17.7742 28.5532 17.4043 28.7982 16.989 28.8239L16.9167 28.8251Z" fill="white" fill-opacity="0.62"/>
<path d="M10.5001 12.4917C13.7217 12.4917 16.3334 9.88007 16.3334 6.65841C16.3334 3.43675 13.7217 0.825073 10.5001 0.825073C7.27842 0.825073 4.66675 3.43675 4.66675 6.65841C4.66675 9.88007 7.27842 12.4917 10.5001 12.4917Z" fill="white" fill-opacity="0.62"/>
<path d="M8.16667 24.1584C8.16667 22.2287 9.737 20.6584 11.6667 20.6584H14.5833C15.1888 20.6584 15.7722 20.8136 16.2843 21.0982L17.2865 19.0927C17.7963 18.0766 18.767 17.4104 19.8695 17.2331C19.3315 16.4888 18.6248 15.8826 17.8074 15.4641C16.99 15.0455 16.085 14.8266 15.1667 14.8251H5.83333C4.28624 14.8251 2.80251 15.4397 1.70854 16.5336C0.614582 17.6276 0 19.1113 0 20.6584L0 24.4501C0 24.9331 0.392 25.3251 0.875 25.3251H8.38133C8.24316 24.9514 8.17053 24.5568 8.16667 24.1584Z" fill="white" fill-opacity="0.62"/>
</g>
</g>
<defs>
<filter id="filter0_b_1_2" x="-168.896" y="-345.896" width="1720.54" height="1319.08" filterUnits="userSpaceOnUse" color-interpolation-filters="sRGB">
<feFlood flood-opacity="0" result="BackgroundImageFix"/>
<feGaussianBlur in="BackgroundImageFix" stdDeviation="61.448"/>
<feComposite in2="SourceAlpha" operator="in" result="effect1_backgroundBlur_1_2"/>
<feBlend mode="normal" in="SourceGraphic" in2="effect1_backgroundBlur_1_2" result="shape"/>
</filter>
<linearGradient id="paint0_linear_1_2" x1="737.376" y1="0" x2="737.376" y2="1073.29" gradientUnits="userSpaceOnUse">
<stop stop-color="#0066FF"/>
<stop offset="1" stop-color="#4E94FF"/>
</linearGradient>
<clipPath id="clip0_1_2">
<rect width="1474.75" height="1073.29" fill="white" transform="translate(-46 -223)"/>
</clipPath>
<clipPath id="clip1_1_2">
<rect width="28" height="28" fill="white" transform="translate(0 0.825073)"/>
</clipPath>
</defs>
</svg>
