<svg width="23" height="21" viewBox="0 0 23 21" fill="none" xmlns="http://www.w3.org/2000/svg">
<path d="M21.8397 16.9499C22.4582 15.8229 22.7886 14.5606 22.8015 13.2752C22.8144 11.9897 22.5094 10.721 21.9137 9.58194C21.3179 8.44283 20.4498 7.46863 19.3866 6.746C18.3235 6.02337 17.0982 5.57472 15.8198 5.43994C15.414 4.46251 14.8136 3.57787 14.055 2.83988C13.2965 2.10188 12.3957 1.52597 11.4075 1.1472C10.4193 0.768431 9.36434 0.594721 8.30686 0.636647C7.24939 0.678574 6.2115 0.935259 5.25639 1.39108C4.30127 1.8469 3.4489 2.49232 2.75117 3.28805C2.05344 4.08378 1.52494 5.01317 1.19784 6.01966C0.870733 7.02615 0.751874 8.08868 0.848492 9.14257C0.94511 10.1965 1.25519 11.2197 1.75984 12.1499L1.11985 14.3999C1.06216 14.6051 1.06016 14.8219 1.11406 15.0281C1.16796 15.2343 1.27581 15.4225 1.42653 15.5732C1.57724 15.7239 1.76538 15.8318 1.97159 15.8857C2.1778 15.9396 2.39465 15.9376 2.59984 15.8799L4.84982 15.2399C5.75512 15.7394 6.75144 16.0523 7.77981 16.1599C8.19638 17.1763 8.82296 18.0933 9.6185 18.8508C10.414 19.6083 11.3606 20.1892 12.3962 20.5555C13.4319 20.9218 14.5332 21.0652 15.6281 20.9763C16.723 20.8875 17.7867 20.5683 18.7497 20.0398L20.9997 20.6798C21.2052 20.741 21.4235 20.7455 21.6313 20.6929C21.8392 20.6402 22.029 20.5324 22.1806 20.3807C22.3322 20.2291 22.4401 20.0393 22.4927 19.8315C22.5454 19.6236 22.5409 19.4054 22.4797 19.1999L21.8397 16.9499ZM4.92982 13.9899C4.87179 13.9893 4.81415 13.9995 4.75982 14.0199L2.26984 14.7299L2.97983 12.2399C3.00479 12.1619 3.01236 12.0794 3.00199 11.9982C2.99163 11.917 2.96358 11.8391 2.91984 11.7699C2.10154 10.3889 1.81543 8.75677 2.1152 7.17981C2.41498 5.60285 3.28003 4.18952 4.54797 3.20514C5.81591 2.22075 7.39955 1.73301 9.00161 1.83346C10.6037 1.93391 12.114 2.61564 13.249 3.7507C14.3841 4.88575 15.0658 6.39606 15.1663 7.99812C15.2667 9.60017 14.779 11.1838 13.7946 12.4518C12.8102 13.7197 11.3969 14.5847 9.81991 14.8845C8.24295 15.1843 6.61079 14.8982 5.22982 14.0799C5.14066 14.0214 5.03643 13.9902 4.92982 13.9899V13.9899ZM20.6197 17.0399L21.3297 19.5299L18.8397 18.8199C18.7618 18.7949 18.6793 18.7873 18.5981 18.7977C18.5169 18.8081 18.4389 18.8361 18.3697 18.8799C17.5916 19.34 16.7273 19.6357 15.8303 19.7486C14.9333 19.8615 14.0227 19.7891 13.1548 19.5361C12.2869 19.283 11.4801 18.8546 10.7844 18.2773C10.0886 17.7 9.51868 16.9862 9.1098 16.1799C11.0845 16.0481 12.9356 15.1715 14.2888 13.7273C15.6421 12.2831 16.3965 10.379 16.3998 8.39992C16.3975 7.83139 16.3338 7.26477 16.2098 6.70993C17.2536 6.906 18.2349 7.35074 19.0704 8.00649C19.906 8.66224 20.5712 9.50968 21.0098 10.4771C21.4483 11.4444 21.6473 12.5032 21.5898 13.5638C21.5324 14.6244 21.2202 15.6555 20.6797 16.5699C20.636 16.6391 20.6079 16.717 20.5976 16.7982C20.5872 16.8794 20.5948 16.9619 20.6197 17.0399V17.0399Z" fill="#0D0D0D" fill-opacity="0.75"/>
</svg>
